<!DOCTYPE svg PUBLIC "-//W3C//DTD SVG 1.1//EN" "http://www.w3.org/Graphics/SVG/1.1/DTD/svg11.dtd">
<!-- Uploaded to: SVG Repo, www.svgrepo.com, Transformed by: SVG Repo Mixer Tools -->
<svg height="800px" width="800px" version="1.1" id="Capa_1" xmlns="http://www.w3.org/2000/svg" xmlns:xlink="http://www.w3.org/1999/xlink" viewBox="0 0 451.719 451.719" xml:space="preserve" fill="#000000">
<g id="SVGRepo_bgCarrier" stroke-width="0"/>
<g id="SVGRepo_tracerCarrier" stroke-linecap="round" stroke-linejoin="round"/>
<g id="SVGRepo_iconCarrier"> <g id="XMLID_35_"> <g> <path style="fill:#ffffff;" d="M277.812,108.468h-103.91c3.66-25.41,25.56-45,51.96-45S274.162,83.058,277.812,108.468z"/> <path style="fill:#ffffff;" d="M332.362,57.808v30.42c0,11.16-9.08,20.24-20.24,20.24h-19.19c-3.75-33.7-32.39-60-67.07-60 s-63.33,26.3-67.07,60h-19.19c-11.16,0-20.24-9.08-20.24-20.24v-30.42c0-8.79,7.15-15.94,15.93-15.94h181.13 C325.212,41.868,332.362,49.018,332.362,57.808z"/> <path style="fill:#329632;" d="M332.362,31.178v0.12c-4.66-2.81-10.11-4.43-15.94-4.43h-181.13c-5.82,0-11.28,1.62-15.93,4.43 v-0.12c0-8.78,7.14-15.93,15.93-15.93h181.13C325.212,15.248,332.362,22.398,332.362,31.178z"/> <path style="fill:#329632;" d="M332.362,389.708v26.52c0,11.16-9.08,20.24-20.24,20.24h-172.52c-11.16,0-20.24-9.08-20.24-20.24 v-26.52c0-11.16,9.08-20.24,20.24-20.24h172.52C323.282,369.468,332.362,378.548,332.362,389.708z"/> <path style="fill:#329632;" d="M332.362,307.708v26.52c0,11.16-9.08,20.24-20.24,20.24h-172.52c-11.16,0-20.24-9.08-20.24-20.24 v-26.52c0-11.16,9.08-20.24,20.24-20.24h172.52C323.282,287.468,332.362,296.548,332.362,307.708z"/> <path style="fill:#329632;" d="M332.362,225.708v26.52c0,11.16-9.08,20.24-20.24,20.24h-172.52c-11.16,0-20.24-9.08-20.24-20.24 v-26.52c0-11.16,9.08-20.24,20.24-20.24h172.52C323.282,205.468,332.362,214.548,332.362,225.708z"/> <path style="fill:#329632;" d="M332.362,143.708v26.52c0,11.16-9.08,20.24-20.24,20.24h-172.52c-11.16,0-20.24-9.08-20.24-20.24 v-26.52c0-11.16,9.08-20.24,20.24-20.24h172.52C323.282,123.468,332.362,132.548,332.362,143.708z"/> <path style="fill:#000000;" d="M347.362,389.708v26.52c0,19.43-15.81,35.24-35.24,35.24h-172.52c-19.44,0-35.24-15.81-35.24-35.24 v-26.52c0-11.25,5.3-21.28,13.54-27.74c-8.24-6.46-13.54-16.49-13.54-27.74v-26.52c0-11.25,5.3-21.28,13.54-27.74 c-8.24-6.46-13.54-16.49-13.54-27.74v-26.52c0-11.25,5.3-21.28,13.54-27.74c-8.24-6.46-13.54-16.49-13.54-27.74v-26.52 c0-11.25,5.3-21.28,13.54-27.74c-4.12-3.23-7.5-7.35-9.86-12.07c-2.36-4.73-3.68-10.05-3.68-15.67v-57.05 c0-17.05,13.87-30.93,30.93-30.93h181.13c17.06,0,30.94,13.88,30.94,30.93v57.05c0,11.25-5.31,21.28-13.55,27.74 c8.24,6.46,13.55,16.49,13.55,27.74v26.52c0,11.25-5.31,21.28-13.55,27.74c8.24,6.46,13.55,16.49,13.55,27.74v26.52 c0,11.25-5.31,21.28-13.55,27.74c8.24,6.46,13.55,16.49,13.55,27.74v26.52c0,11.25-5.31,21.28-13.55,27.74 C342.052,368.428,347.362,378.458,347.362,389.708z M332.362,416.228v-26.52c0-11.16-9.08-20.24-20.24-20.24h-172.52 c-11.16,0-20.24,9.08-20.24,20.24v26.52c0,11.16,9.08,20.24,20.24,20.24h172.52C323.282,436.468,332.362,427.388,332.362,416.228z M332.362,334.228v-26.52c0-11.16-9.08-20.24-20.24-20.24h-172.52c-11.16,0-20.24,9.08-20.24,20.24v26.52 c0,11.16,9.08,20.24,20.24,20.24h172.52C323.282,354.468,332.362,345.388,332.362,334.228z M332.362,252.228v-26.52 c0-11.16-9.08-20.24-20.24-20.24h-172.52c-11.16,0-20.24,9.08-20.24,20.24v26.52c0,11.16,9.08,20.24,20.24,20.24h172.52 C323.282,272.468,332.362,263.388,332.362,252.228z M332.362,170.228v-26.52c0-11.16-9.08-20.24-20.24-20.24h-172.52 c-11.16,0-20.24,9.08-20.24,20.24v26.52c0,11.16,9.08,20.24,20.24,20.24h172.52C323.282,190.468,332.362,181.388,332.362,170.228z M332.362,88.228v-30.42c0-8.79-7.15-15.94-15.94-15.94h-181.13c-8.78,0-15.93,7.15-15.93,15.94v30.42 c0,11.16,9.08,20.24,20.24,20.24h19.19c3.74-33.7,32.39-60,67.07-60s63.32,26.3,67.07,60h19.19 C323.282,108.468,332.362,99.388,332.362,88.228z M332.362,31.298v-0.12c0-8.78-7.15-15.93-15.94-15.93h-181.13 c-8.79,0-15.93,7.15-15.93,15.93v0.12c4.65-2.81,10.11-4.43,15.93-4.43h181.13C322.252,26.868,327.702,28.488,332.362,31.298z M173.902,108.468h103.91c-3.65-25.41-25.55-45-51.95-45S177.562,83.058,173.902,108.468z"/> </g> <g> </g> </g> </g>
</svg>