<!DOCTYPE svg PUBLIC "-//W3C//DTD SVG 1.1//EN" "http://www.w3.org/Graphics/SVG/1.1/DTD/svg11.dtd">
<!-- Uploaded to: SVG Repo, www.svgrepo.com, Transformed by: SVG Repo Mixer Tools -->
<svg fill="#000000" width="800px" height="800px" viewBox="0 0 24 24" id="school-bag" data-name="Line Color" xmlns="http://www.w3.org/2000/svg" class="icon line-color">
<g id="SVGRepo_bgCarrier" stroke-width="0"/>
<g id="SVGRepo_tracerCarrier" stroke-linecap="round" stroke-linejoin="round"/>
<g id="SVGRepo_iconCarrier">
<path id="secondary" d="M10,17h4M14,4a1,1,0,0,0-1-1H11a1,1,0,0,0-1,1V5h4Zm4,15h1a1,1,0,0,0,1-1V15H18ZM6,15H4v3a1,1,0,0,0,1,1H6Z" style="fill: none; stroke: #326496; stroke-linecap: round; stroke-linejoin: round; stroke-width: 2;"/>
<path id="primary" d="M19,9V6a1,1,0,0,0-1-1H6A1,1,0,0,0,5,6V9a2,2,0,0,0,2,2H17A2,2,0,0,0,19,9Zm-2,2H7a2,2,0,0,1-1-.28V20a1,1,0,0,0,1,1H17a1,1,0,0,0,1-1V10.72A2,2,0,0,1,17,11Z" style="fill: none; stroke: #000000; stroke-linecap: round; stroke-linejoin: round; stroke-width: 2;"/>
<line id="secondary-2" data-name="secondary" x1="12" y1="10" x2="12" y2="12" style="fill: none; stroke: #326496; stroke-linecap: round; stroke-linejoin: round; stroke-width: 2;"/>
</g>
</svg>